Coordinates																			
version=1																			
nRows=21																			
nColumns=20																			
inDegrees=yes																			
																			
Units are S.I. units (second	 meters	 Newtons	 ...)																
If the header above contains a line with 'inDegrees'	 this indicates whether rotational values are in degrees (yes) or radians (no).																		
																			
endheader																			
time	pelvis_tilt	pelvis_list	pelvis_rotation	pelvis_tx	pelvis_ty	pelvis_tz	hip_flexion_r	hip_adduction_r	hip_rotation_r	knee_angle_r	ankle_angle_r	hip_flexion_l	hip_adduction_l	hip_rotation_l	knee_angle_l	ankle_angle_l	lumbar_extension	lumbar_bending	lumbar_rotation
4.11	4.10137403	9.84042036	93.26211311	-0.01568109	0.9607017	-0.08445572	14.32391436	2.30092804	-25.17729222	-9.75416029	-21.64147871	-18.42374968	-13.51139652	-19.08897548	-34.78624327	-22.05062303	-26.89109612	7.20869086	-5.93973625
4.12	4.43669951	9.97494747	93.33241482	-0.01339148	0.96215733	-0.09818336	13.92035298	2.67756294	-25.06839044	-10.78344814	-21.86126698	-16.6274425	-14.43192492	-17.81550587	-38.87314333	-23.36592362	-27.08979193	7.64584324	-5.65913459
4.13	4.74906643	10.07424162	93.43298218	-0.01119119	0.96373551	-0.11171028	13.471941	3.04526905	-25.00047207	-11.69435018	-21.7746096	-14.65830268	-15.22051693	-16.40973836	-42.93422367	-24.44947364	-27.2266182	8.05929947	-5.38277205
4.14	5.02643862	10.13890902	93.5257996	-0.00904597	0.96544551	-0.12504357	12.98019262	3.40128213	-24.95279569	-12.48528797	-21.47290539	-12.57754357	-15.85028902	-14.98336563	-46.87290885	-25.31288521	-27.35356033	8.43450652	-5.15143217
4.15	5.24736091	10.17812955	93.62277225	-0.00697512	0.96732	-0.13820115	12.41712882	3.7327656	-24.90429788	-13.1181191	-20.97720922	-10.43122837	-16.29609732	-13.55135897	-50.61480981	-25.89677454	-27.44398814	8.74135069	-4.93083405
4.16	5.40680093	10.20294155	93.71277979	-0.00496236	0.9693768	-0.15119922	11.77062218	4.03936693	-24.84720762	-13.58646793	-20.34213752	-8.27002311	-16.56229289	-12.17700301	-54.10394309	-26.17450742	-27.52643254	8.97559586	-4.72506668
4.17	5.48509816	10.22484529	93.80051735	-0.00301878	0.97163099	-0.16405815	11.02694876	4.29981397	-24.77933982	-13.88494992	-19.60338378	-6.13570259	-16.63650475	-10.88429705	-57.29344067	-26.10797967	-27.59488803	9.11418798	-4.50640573
4.18	5.49079759	10.23764184	93.87307356	-0.00111478	0.97404843	-0.17678036	10.2079648	4.51742465	-24.704235	-14.03061574	-18.84102727	-4.04260824	-16.55024907	-9.72723547	-60.16491672	-25.69645957	-27.67301022	9.16331751	-4.33319701
4.19	5.40077808	10.24465562	93.94215968	0.00071642	0.97661731	-0.18937467	9.31844014	4.65728394	-24.63496315	-14.03789952	-18.07513987	-2.00928487	-16.2851113	-8.70132969	-62.69077873	-24.93900454	-27.73808559	9.1006691	-4.1696603
4.2	5.22087283	10.23692985	94.00460073	0.00248134	0.97928536	-0.20184297	8.38477114	4.71584526	-24.58081824	-13.92978478	-17.35463743	-0.03501006	-15.86387056	-7.82638182	-64.86243976	-23.87926677	-27.78883972	8.93109752	-4.01248854
4.21	4.96277658	10.20529209	94.06387774	0.00417225	0.9819921	-0.21418343	7.43282949	4.69564945	-24.55813096	-13.72760751	-16.70477854	1.88970728	-15.31274028	-7.10240838	-66.67735606	-22.58877055	-27.81779225	8.66975178	-3.8418582
4.22	4.60917113	10.19131829	94.11641268	0.00577635	0.9847708	-0.2264415	6.42235937	4.57528956	-24.57930633	-13.44892743	-16.09782727	3.69365463	-14.62346361	-6.54207301	-68.10033541	-21.11741265	-27.86391966	8.27776746	-3.74215298
4.23	4.21877082	10.10200183	94.15002175	0.00733717	0.98741392	-0.23856872	5.474314	4.41604026	-24.54541365	-13.0967283	-15.62177266	5.50567362	-13.87214946	-6.13719874	-69.17722655	-19.56609696	-27.82064495	7.87286875	-3.62075037
4.24	3.75990306	10.03052956	94.17912206	0.00880099	0.99003504	-0.25062865	4.49183672	4.17187176	-24.60291154	-12.70692812	-15.21285153	7.19756862	-13.03229106	-5.87701926	-69.86277621	-18.07348021	-27.80892316	7.33656616	-3.52911318
4.25	3.30702464	9.92210222	94.19043214	0.01021533	0.99247466	-0.26261566	3.5376718	3.93562952	-24.60637606	-12.25923189	-14.84803132	8.84940056	-12.19797369	-5.7453562	-70.20138867	-16.65860789	-27.74095646	6.85639193	-3.41300512
4.26	2.82851451	9.81665822	94.17817125	0.01157905	0.9947883	-0.27456519	2.57595212	3.66338974	-24.64485671	-11.78188589	-14.58466538	10.39369042	-11.34144358	-5.7478956	-70.16528815	-15.48392185	-27.6874179	6.27277084	-3.32192748
4.27	2.38295547	9.70584008	94.14328721	0.01291009	0.9968906	-0.2864982	1.61356186	3.42798276	-24.64641311	-11.26446951	-14.32286869	11.85357449	-10.53643922	-5.85543956	-69.79271361	-14.50651508	-27.60829841	5.74337047	-3.21601198
4.28	1.97284773	9.61261845	94.08378703	0.01421423	0.99878971	-0.29844421	0.62787468	3.23026942	-24.63281584	-10.72063781	-14.04238765	13.19478377	-9.79124857	-6.06100861	-69.08895816	-13.74273111	-27.52999878	5.26009469	-3.04458943
4.29	1.59693322	9.53369538	93.99039517	0.01551617	1.00047558	-0.3104116	-0.37402412	3.06520907	-24.59764719	-10.15712797	-13.79688066	14.41261779	-9.10788605	-6.35806519	-68.05650202	-13.27018373	-27.46877219	4.77012623	-2.85228147
4.3	1.28292647	9.4321963	93.85975063	0.01683995	1.00186814	-0.32240913	-1.34942846	2.96155905	-24.51614289	-9.57348307	-13.62397125	15.55389903	-8.52108801	-6.74118436	-66.72747909	-13.03340072	-27.3408937	4.32916365	-2.74667564
4.31	0.98454294	9.44340756	93.71051616	0.01814473	1.0031557	-0.33447971	-2.45217128	2.87241551	-24.45447171	-8.99537609	-13.29559911	16.44312212	-7.97984821	-7.19629093	-65.07731633	-12.99507269	-27.38620282	3.8972189	-2.41898003
